General
Complete name                            : D:-=Downloads=-=-MOVIES-=-=Seeding=-BastardyBastardy.XviD.AC3.avi
Format                                   : AVI
Format/Info                              : Audio Video Interleave
File size                                : 896 MiB
Duration                                 : 1h 23mn
Overall bit rate                         : 1 502 Kbps
Writing application                      : VirtualDubMod 1.5.4.1 (build 2178/release)
Writing library                          : VirtualDubMod build 2178/release

Video
ID                                       : 0
Format                                   : MPEG-4 Visual
Format profile                           : Advanced Simple@L5
Format settings, BVOP                    : 1
Format settings, QPel                    : No
Format settings, GMC                     : No warppoints
Format settings, Matrix                  : Custom
Codec ID                                 : XVID
Codec ID/Hint                            : XviD
Duration                                 : 1h 23mn
Bit rate                                 : 1 303 Kbps
Width                                    : 704 pixels
Height                                   : 400 pixels
Display aspect ratio                     : 16:9
Frame rate                               : 25.000 fps
Color space                              : YUV
Chroma subsampling                       : 4:2:0
Bit depth                                : 8 bits
Scan type                                : Progressive
Compression mode                         : Lossy
Bits/(Pixel*Frame)                       : 0.185
Stream size                              : 778 MiB (87%)
Writing library                          : XviD 1.2.1 (UTC 2008-12-04)

Audio
ID                                       : 1
Format                                   : AC-3
Format/Info                              : Audio Coding 3
Mode extension                           : CM (complete main)
Format settings, Endianness              : Big
Codec ID                                 : 2000
Duration                                 : 1h 23mn
Bit rate mode                            : Constant
Bit rate                                 : 192 Kbps
Channel(s)                               : 2 channels
Channel positions                        : Front: L R
Sampling rate                            : 48.0 KHz
Bit depth                                : 16 bits
Compression mode                         : Lossy
Stream size                              : 115 MiB (13%)
Alignment                                : Split accross interleaves
Interleave, duration                     : 96 ms (2.40 video frames)
Interleave, preload duration             : 96 ms


Please keep seeding... ) 
Bastardy captures the beggared and destitute recent years in the life of prolific Indigenous actor Jack Charles, who is credited with founding the first Aboriginal theatre company in the early 70s and collaborating over the decades with a long list of Australians actors and filmmakers. Though heΓÇÖs worked predominantly in theatre, CharlesΓÇÖs films include significant releases such as Blackfellas (1993) and Fred SchepisiΓÇÖs The Chant of Jimmie Blacksmith (1978). 

 
http://bastardydocumentary.com/




